<svg height="512" width="512" xmlns="http://www.w3.org/2000/svg"><path d="M403.283 501.562s36.069-22.953 36.069-55.743-28.691-46.726-28.691-46.726 50.503-23.755 34.74-94.354c-15.763-70.598-66.457-75.384-66.457-75.384s6.197-97.715-85.179-45.273c0 0 5.827-131.284-81.459-76.73l8.09 232.271z" fill="#ccf3e2"/><path d="M410.661 399.094s50.503-23.755 34.74-94.354c-2.835-12.697-15.646-29.402-20.243-38.196 20.003 101.189-48.732 148.444-124.036 94.319-4.041-2.905-14.679 33.584-19.531 32.948l121.691 107.752s36.069-22.953 36.069-55.743c.001-32.79-28.69-46.726-28.69-46.726z" fill="#b1b6e1"/><path d="M404.366 498.802c-11.974-43.585-33.516-89.022-67.692-116.682 6.423-18.198 9.895-37.828 9.895-67.556l1.091-59.148c0-21.167-6.428-40.832-17.438-57.151 5.052-5.141 9.325-12.074 12.341-20.838 9.185-26.692-7.619-63.904-15.93-66.764-8.312-2.86-44.456 16.133-53.641 42.825a70.154 70.154 0 00-.987 3.131 102.43 102.43 0 00-26.658-3.516h-63.141c-4.715 0-9.245.359-13.598 1.02-.646-5.802-2.429-12-5.526-18.452-12.092-25.181-49.798-39.7-57.639-35.935-7.841 3.766-20.085 42.27-7.994 67.451 4.001 8.332 9.043 14.689 14.65 19.168-11.12 12.607-18.488 26.408-22.26 36.78-9.104 25.031-13.655 59.165-13.655 59.165-24.658 23.212-32.502 54.974-22.636 82.599 8.141 22.794 24.208 39.507 45.589 50.473 18.793 9.639 49.289 13.094 65.99 11.642-9.281 20.417-14.182 49.808-17.475 71.787h256.714z" fill="#fff"/><path d="M335.621 382.12c6.423-18.198 9.895-37.828 9.895-67.556l1.091-59.148c0-21.167-6.428-40.832-17.438-57.151 5.052-5.141 9.325-12.074 12.341-20.838 9.185-26.692-7.619-63.904-15.93-66.764-3.922-1.35-5.042-.501-15.602 6.395 6.543 12.277 11.035 28.079 9.38 47.942-1.042 12.507-17.216 25.739-21.446 30.631 9.219 15.526 16.276 67.756 16.276 87.896l-.276 15.017c0 20.613-8.841 48.633-13.629 67.841-2.793 11.201-4.352 21.266 4.019 29.215 11.256 10.687 19.973 20.971 27.471 39.892 8.346 21.063-7.251 43.907-29.908 43.907H149.73c-1.201 6.797-2.23 13.383-3.132 19.404h256.715c-11.974-43.587-33.516-89.023-67.692-116.683z" fill="#e1bdfc"/><path d="M240.617 173.147a9.921 9.921 0 00-.187-1.373c-.639-17.749-6.032-33.117-18.367-45.007-.307-19.862-5.578-35.321-18.157-44.492-6.353-21.958-16.203-45.384-28.501-69.837-1.538-3.769-7.162-2.553-7.004 1.516-1.512 22.013-1.609 42.465 2.267 58.527-5.316 13.071-5.402 26.247 1.534 39.594-4.298 13.22-4.487 26.954 1.603 41.385-6.434 13.892-1.625 26.583.112 32.595 7.136 20.174 68.182 7.274 66.7-12.908z" fill="#f6e06e"/><path d="M240.617 173.147a9.921 9.921 0 00-.187-1.373c-.454-12.605-3.322-24-9.355-33.811a70.673 70.673 0 011.084 10.091c.088.394.136.784.165 1.172 1.305 17.22-52.432 28.227-58.715 11.012-.295-.99-.691-2.194-1.097-3.576-4.407 12.613-.198 23.845 1.405 29.391 7.136 20.176 68.182 7.276 66.7-12.906z" fill="#dda86a"/><path d="M86.549 192.215c14.187-8.192 24.709-21.267 30.504-36.59a48.114 48.114 0 016.99-12.456c14.443-18.65 40.79-23.937 61.298-12.283 24.46 13.899 31.573 45.33 16.198 68.272-13.237 19.752-34.566 27.99-54.299 27.362-11.496-.366-38.005-7.438-58.133-13.279-9.744-2.828-11.344-15.953-2.558-21.026z" fill="#ccf3e2"/><path d="M185.34 130.885c-20.508-11.653-46.855-6.367-61.298 12.283a48.086 48.086 0 00-6.989 12.457c-5.795 15.323-16.317 28.399-30.504 36.59-8.786 5.073-7.186 18.197 2.558 21.025 20.128 5.841 46.637 12.913 58.133 13.279 19.733.628 41.062-7.61 54.299-27.362 15.374-22.942 8.262-54.372-16.199-68.272zm2.205 45.389c-6.6 15.804-20.741 24.509-35.05 26.701-8.336 1.277-28.484-.203-43.852-1.662-7.439-.706-10.542-9.817-4.967-14.597 9.003-7.717 14.64-18.415 16.537-30.077a33.842 33.842 0 013.184-9.785c7.633-15.182 25.827-22.461 42.333-16.923 19.686 6.605 29.481 27.986 21.815 46.343z" fill="#b1b6e1"/><path d="M457.881 55.13l8.354 23.49c.358 1.006 1.066 1.803 1.959 2.205l20.87 9.403c2.948 1.328 2.948 6.026 0 7.354l-20.87 9.403c-.894.403-1.602 1.2-1.959 2.205l-8.354 23.49c-1.18 3.319-5.354 3.319-6.534 0l-8.354-23.49c-.358-1.006-1.066-1.803-1.959-2.205l-20.87-9.403c-2.948-1.328-2.948-6.026 0-7.354l20.87-9.403c.894-.403 1.602-1.2 1.959-2.205l8.354-23.49c1.18-3.319 5.353-3.319 6.534 0zM79.949 27.995l6.197 17.425c.265.746.791 1.337 1.453 1.636l15.481 6.975c2.187.985 2.187 4.47 0 5.456L87.6 66.46c-.663.299-1.188.89-1.453 1.636L79.95 85.521c-.876 2.462-3.972 2.462-4.847 0l-6.197-17.425c-.265-.746-.791-1.337-1.453-1.636l-15.481-6.975c-2.187-.985-2.187-4.47 0-5.456l15.481-6.975c.663-.299 1.188-.89 1.453-1.636l6.197-17.425c.875-2.46 3.971-2.46 4.846.002z" fill="#fbf2aa"/><g fill="#f7e16e"><circle cx="33.119" cy="134.054" transform="rotate(-13.34 32.952 133.925)" r="12.395"/><path d="M361.158 47.148c0 5.317-4.31 9.627-9.627 9.627s-9.627-4.31-9.627-9.627 4.31-9.626 9.627-9.626c5.317-.001 9.627 4.309 9.627 9.626z"/></g><g><path d="M104.26 247.304a6.102 6.102 0 01-3.984-10.726c6.958-5.99 17.436-5.987 24.374.007a6.102 6.102 0 11-7.979 9.235c-2.357-2.037-6.061-2.036-8.432.007a6.083 6.083 0 01-3.979 1.477zM224.325 247.304a6.102 6.102 0 01-3.984-10.726c6.96-5.99 17.438-5.987 24.374.007a6.102 6.102 0 11-7.979 9.235c-2.358-2.037-6.062-2.034-8.432.007a6.087 6.087 0 01-3.979 1.477z" fill="#3c122c"/><path d="M138.98 177.843c-1.511 0-3.044-.338-4.49-1.051-5.037-2.484-7.107-8.582-4.623-13.619 9.146-18.546 24.33-23.251 26.031-23.726 0 0 9.065-2.82 12.008 6.081 2.943 8.9-6.36 13.458-6.36 13.458-.337.108-8.297 2.761-13.436 13.183a10.17 10.17 0 01-9.13 5.674z" fill="#fff"/><g fill="#3c122c"><path d="M428.376 399.246a83.709 83.709 0 0013.813-14.903c10.942-15.162 22.104-41.663 13.138-81.819-8.865-39.704-28.451-60.168-43.322-70.344-8.797-6.02-16.973-9.269-22.891-11.008-.589-14.571-4.514-43.214-25.46-56.247a41.334 41.334 0 00-9.343-4.295c-.335-10.338-2.627-19.59-4.504-25.552-1.972-6.264-9.309-27.014-20.918-31.007-11.617-3.997-30.161 7.846-35.569 11.57-.115.079-.242.171-.359.252-5.382-12.167-12.645-20.98-21.754-26.296-13.337-7.784-29.484-7.589-48.147.53-2.351-5.038-5.662-9.747-10.311-13.793-6.198-20.548-15.417-42.906-28.135-68.22A13.783 13.783 0 00169.118.315a13.785 13.785 0 00-10.889 13.318c-1.73 25.46-1.161 43.597 1.852 58.09-5.446 15.46-4.409 30.596 3.097 45.038a10.12 10.12 0 001.084 1.632c-.019.097-.031.195-.049.292a53.686 53.686 0 00-3.992-.026c-8.161-8.619-17.655-14.498-23.848-17.775-5.755-3.046-25.383-12.57-36.384-7.292-10.996 5.281-15.837 26.558-17.059 32.954-1.996 10.451-4.092 30.592 4.299 48.066A75.97 75.97 0 0091.1 181.7a59.97 59.97 0 01-7.601 5.229c-6.215 3.589-9.54 10.243-8.677 17.367.603 4.977 3.141 9.239 6.963 12.043a102.477 102.477 0 00-2.557 6.344c-7.734 21.268-12.227 48.2-13.669 57.771-25.061 25.275-33.748 59.786-22.639 90.89 8.758 24.521 25.757 43.397 50.525 56.102 16.153 8.285 38.558 12.073 55.822 12.888-5.978 18.405-9.762 40.215-12.724 59.984-.832 5.555 2.996 10.732 8.551 11.564 5.55.836 10.732-2.995 11.564-8.551 3.581-23.898 8.362-50.796 16.676-69.085a10.172 10.172 0 00-.954-10.08 10.195 10.195 0 00-9.185-4.261c-14.299 1.246-43.264-1.734-60.467-10.557-20.015-10.267-33.693-25.355-40.654-44.845-8.228-23.04-1.863-48.811 16.572-68.316 1.173 7.633 6.4 16.592 22.55 22.054 12.581 4.255 26.672 4.586 30.692 4.586 9.811 0 16.152-11.919 16.152-30.364s-6.34-30.364-16.152-30.364c-4.019 0-18.11.331-30.692 4.585-6.086 2.058-10.614 4.615-13.966 7.409 2.1-11.856 5.827-29.919 11.114-44.459a87.68 87.68 0 012.768-6.66c22.354 6.142 37.778 9.381 45.936 9.641.777.025 1.552.037 2.325.037 23.262 0 44.527-11.137 57.236-30.101.241-.359.461-.73.693-1.095a81.032 81.032 0 005.006-.868c16.393-3.436 35.111-12.676 34.411-27.447 0-.096-.005-.192-.009-.287-.003-.047-.001-.094-.005-.142v-.022c-.005-.059-.012-.111-.016-.168l-.01-.099a16.52 16.52 0 00-.167-1.347 96.672 96.672 0 00-.325-4.75 92.377 92.377 0 0122.124 3.135c5.338 1.438 10.851-1.656 12.404-6.963.303-1.038.572-1.89.843-2.68 6.707-19.491 31.852-34.369 40.566-36.083 5.814 6.714 16.479 33.914 9.772 53.405-2.412 7.011-5.769 12.736-9.977 17.018a10.171 10.171 0 00-1.178 12.817c10.253 15.196 15.681 32.959 15.699 51.372l-1.089 59.051a11.66 11.66 0 00-.002.188c0 26.48-2.786 45.672-9.315 64.172a10.168 10.168 0 003.192 11.29c27.912 22.59 50.742 62.178 64.283 111.47 1.241 4.514 5.335 7.478 9.801 7.478.892 0 1.799-.119 2.7-.366a10.103 10.103 0 004.639-2.775c8.108-5.665 38.875-29.381 38.875-63.039-.002-22.792-11.449-37.878-21.148-46.57zm-321.625-121.52c10.196-3.098 21.322-3.409 24.927-3.421 1.47 1.07 4.154 7.401 4.154 18.16 0 10.76-2.684 17.091-4.154 18.16-6.891-.018-16.646-.915-24.927-3.423zM190.79 74.379l-10.071-3.406c-.007-.049-.019-.097-.027-.146a10.168 10.168 0 00-.114-.603c-.01-.044-.014-.087-.025-.131-2.112-8.748-2.862-19.143-2.944-29.32 5.285 11.881 9.655 23.026 13.181 33.606zm-12.832 8.542l18.471 6.246.048.047c.165.176.336.345.512.508.053.049.102.099.156.147a9.835 9.835 0 00.768.621c6.816 4.97 9.894 13.024 10.219 27.17l-26.292-8.798a10.098 10.098 0 00-.615-1.481c-4.2-8.078-5.273-15.989-3.267-24.46zm-68.961 29.434c5.346.45 17.153 4.974 27.566 12.549-6.601 3.476-12.556 8.345-17.345 14.529a54.222 54.222 0 00-7.874 14.034 68.716 68.716 0 01-5.934 11.998c-8.526-18.278-1.305-45.83 3.587-53.11zm87.472 83.406c-10.774 16.075-29.126 25.305-49.035 24.659-8.466-.269-28.576-4.9-56.626-13.04-3.192-.926-3.77-3.717-3.871-4.551-.1-.831-.206-3.673 2.664-5.329 14.968-8.643 26.744-22.747 33.161-39.716a42.027 42.027 0 016.107-10.878c12.596-16.268 35.577-20.874 53.459-10.714 10.26 5.83 17.394 15.326 20.089 26.741 2.655 11.257.488 23.223-5.948 32.828zm17.053-8.005a54.252 54.252 0 002.187-15.588l17.385 5.123c-2.877 3.729-9.903 7.882-19.572 10.465zm.457-28.82c-3.69-14.219-12.742-26.036-25.625-33.356a53.035 53.035 0 00-11.074-4.721c.233-.138.47-.27.69-.421l41.821 13.994c.456.153.915.229 1.374.272 6.946 8.066 11.098 17.983 12.588 30.059zm50.539-11.156a112.92 112.92 0 00-20.225-1.823h-2.611c-3.042-8.134-7.481-15.32-13.319-21.488.062-.424.108-.853.116-1.293.079-4.133.018-8.523-.39-12.977 13.757-6.692 24.788-7.741 32.852-3.042 7.267 4.235 12.305 12.775 15.762 22.814-4.599 5.003-8.995 10.967-12.185 17.809zm144.167 336.487c-10.867-33.744-29.612-74.22-61.261-102.434 5.756-18.709 8.256-38.368 8.262-64.15l1.089-59.054.002-.188c0-19.912-5.187-39.21-15.064-56.269 3.866-5.292 7.02-11.455 9.414-18.411.25-.725.477-1.453.694-2.182.355.192.711.384 1.056.598 14.792 9.166 16.505 36.713 15.918 46.536-.349 5.484 3.723 10.252 9.194 10.769.433.041 43.496 4.815 57.486 67.474 13.692 61.319-27.443 82.108-29.143 82.935-3.545 1.668-5.844 5.208-5.868 9.125a10.124 10.124 0 005.699 9.199c.939.471 23.02 11.831 23.02 37.605-.001 16.205-11.433 30.028-20.498 38.447z"/><path d="M239.483 262.102c-4.019 0-18.109.331-30.691 4.585-18.872 6.383-22.834 17.541-22.834 25.779 0 8.237 3.962 19.395 22.834 25.778 12.581 4.255 26.671 4.586 30.691 4.586 9.811 0 16.152-11.919 16.152-30.364s-6.34-30.364-16.152-30.364zm-.206 48.524c-6.891-.018-16.646-.915-24.927-3.423v-29.477c10.197-3.098 21.321-3.409 24.927-3.421 1.47 1.07 4.154 7.401 4.154 18.16 0 10.761-2.684 17.092-4.154 18.161zM171.126 356.732c-22.862 0-45.652-.814-52-2.438a6.101 6.101 0 01-4.399-7.424 6.098 6.098 0 017.424-4.399c10.589 2.708 86.942 2.688 98.431-.027a6.097 6.097 0 017.341 4.535 6.1 6.1 0 01-4.535 7.341c-6.803 1.61-29.568 2.412-52.262 2.412z"/></g></g></svg>